<svg width="32" height="32" viewBox="0 0 32 32" fill="none" xmlns="http://www.w3.org/2000/svg">
<g id="file-text">
<path id="Vector" d="M18.6667 2.66669H8.00003C7.29278 2.66669 6.6145 2.94764 6.11441 3.44774C5.61431 3.94783 5.33336 4.62611 5.33336 5.33335V26.6667C5.33336 27.3739 5.61431 28.0522 6.11441 28.5523C6.6145 29.0524 7.29278 29.3334 8.00003 29.3334H24C24.7073 29.3334 25.3855 29.0524 25.8856 28.5523C26.3857 28.0522 26.6667 27.3739 26.6667 26.6667V10.6667L18.6667 2.66669Z" stroke="#2E96C9" stroke-width="2" stroke-linecap="round" stroke-linejoin="round"/>
<path id="Vector_2" d="M18.6667 2.66669V10.6667H26.6667" stroke="#2E96C9" stroke-width="2" stroke-linecap="round" stroke-linejoin="round"/>
<path id="Vector_3" d="M21.3334 17.3334H10.6667" stroke="#2E96C9" stroke-width="2" stroke-linecap="round" stroke-linejoin="round"/>
<path id="Vector_4" d="M21.3334 22.6667H10.6667" stroke="#2E96C9" stroke-width="2" stroke-linecap="round" stroke-linejoin="round"/>
<path id="Vector_5" d="M13.3334 12.0001H12H10.6667" stroke="#2E96C9" stroke-width="2" stroke-linecap="round" stroke-linejoin="round"/>
</g>
</svg>
